<svg width="16" height="17" viewBox="0 0 16 17" fill="none" xmlns="http://www.w3.org/2000/svg">
<rect width="16" height="17" fill="#1E1E1E"/>
<g id="Frame 53" clip-path="url(#clip0_0_1)">
<rect width="360" height="6337" transform="translate(-159 -292)" fill="#F3F5FA"/>
<path id="RENEWABLE ENERGY For any task" d="M-136.732 -65.16H-130.864C-127.912 -65.16 -125.752 -64.548 -124.384 -63.324C-122.992 -62.124 -122.296 -60.156 -122.296 -57.42C-122.296 -53.676 -123.496 -51.408 -125.896 -50.616L-121.756 -36H-125.68L-129.496 -49.68H-132.664V-36H-136.732V-65.16ZM-131.116 -52.596C-129.364 -52.596 -128.116 -52.944 -127.372 -53.64C-126.604 -54.336 -126.22 -55.596 -126.22 -57.42C-126.22 -58.62 -126.352 -59.556 -126.616 -60.228C-126.88 -60.924 -127.348 -61.428 -128.02 -61.74C-128.692 -62.076 -129.64 -62.244 -130.864 -62.244H-132.664V-52.596H-131.116ZM-118.064 -65.16H-106.76V-62.136H-113.996V-52.488H-108.128V-49.608H-113.996V-38.916H-106.688V-36H-118.064V-65.16ZM-103.404 -65.16H-100.632L-92.3519 -45.792V-65.16H-88.9679V-36H-91.5599L-99.9479 -55.908V-36H-103.404V-65.16ZM-84.3843 -65.16H-73.0803V-62.136H-80.3163V-52.488H-74.4483V-49.608H-80.3163V-38.916H-73.0083V-36H-84.3843V-65.16ZM-70.6962 -65.16H-67.3122L-64.1802 -44.208L-60.2562 -65.052H-57.3762L-53.4162 -44.1L-50.3562 -65.16H-47.0442L-51.7242 -36H-54.6762L-58.7442 -57.6L-62.8482 -36H-65.9442L-70.6962 -65.16ZM-39.9795 -65.16H-36.0555L-29.8275 -36H-33.6795L-35.0115 -43.344H-40.9515L-42.3555 -36H-46.1715L-39.9795 -65.16ZM-35.5515 -46.26L-37.9995 -59.4L-40.4115 -46.26H-35.5515ZM-26.8687 -65.16H-20.1727C-17.5327 -65.16 -15.5767 -64.56 -14.3047 -63.36C-13.0327 -62.184 -12.3967 -60.348 -12.3967 -57.852C-12.3967 -54.132 -13.7887 -52.08 -16.5727 -51.696C-14.8447 -51.288 -13.5847 -50.472 -12.7927 -49.248C-12.0007 -48.048 -11.6047 -46.404 -11.6047 -44.316C-11.6047 -41.7 -12.2287 -39.66 -13.4767 -38.196C-14.7007 -36.732 -16.5727 -36 -19.0927 -36H-26.8687V-65.16ZM-20.3887 -52.992C-18.7087 -52.992 -17.5447 -53.352 -16.8967 -54.072C-16.2487 -54.816 -15.9247 -56.076 -15.9247 -57.852C-15.9247 -59.148 -16.1287 -60.096 -16.5367 -60.696C-16.9207 -61.32 -17.5087 -61.716 -18.3007 -61.884C-19.0927 -62.052 -20.2687 -62.136 -21.8287 -62.136H-22.8007V-52.992H-20.3887ZM-20.0647 -38.916C-18.8647 -38.916 -17.9407 -39.096 -17.2927 -39.456C-16.6207 -39.84 -16.1527 -40.416 -15.8887 -41.184C-15.6247 -41.952 -15.4927 -42.996 -15.4927 -44.316C-15.4927 -46.188 -15.8767 -47.58 -16.6447 -48.492C-17.4127 -49.428 -18.6607 -49.896 -20.3887 -49.896H-22.8007V-38.916H-20.0647ZM-7.98981 -65.16H-3.92181V-38.916H3.53019V-36H-7.98981V-65.16ZM6.31878 -65.16H17.6228V-62.136H10.3868V-52.488H16.2548V-49.608H10.3868V-38.916H17.6948V-36H6.31878V-65.16ZM29.2055 -65.16H40.5095V-62.136H33.2735V-52.488H39.1415V-49.608H33.2735V-38.916H40.5815V-36H29.2055V-65.16ZM43.8657 -65.16H46.6377L54.9177 -45.792V-65.16H58.3017V-36H55.7097L47.3217 -55.908V-36H43.8657V-65.16ZM62.8852 -65.16H74.1892V-62.136H66.9532V-52.488H72.8212V-49.608H66.9532V-38.916H74.2612V-36H62.8852V-65.16ZM77.5453 -65.16H83.4133C86.3653 -65.16 88.5253 -64.548 89.8933 -63.324C91.2853 -62.124 91.9813 -60.156 91.9813 -57.42C91.9813 -53.676 90.7813 -51.408 88.3813 -50.616L92.5213 -36H88.5973L84.7813 -49.68H81.6133V-36H77.5453V-65.16ZM83.1613 -52.596C84.9133 -52.596 86.1613 -52.944 86.9053 -53.64C87.6733 -54.336 88.0573 -55.596 88.0573 -57.42C88.0573 -58.62 87.9253 -59.556 87.6613 -60.228C87.3973 -60.924 86.9293 -61.428 86.2573 -61.74C85.5853 -62.076 84.6373 -62.244 83.4133 -62.244H81.6133V-52.596H83.1613ZM103.161 -35.64C100.521 -35.64 98.6133 -36.468 97.4373 -38.124C96.2613 -39.804 95.6733 -42.288 95.6733 -45.576V-55.332C95.6733 -57.588 95.9013 -59.436 96.3573 -60.876C96.8373 -62.34 97.6413 -63.456 98.7693 -64.224C99.9213 -65.016 101.493 -65.412 103.485 -65.412C106.173 -65.412 108.105 -64.728 109.281 -63.36C110.481 -61.992 111.081 -59.844 111.081 -56.916V-55.836H107.265V-56.736C107.265 -58.128 107.181 -59.196 107.013 -59.94C106.845 -60.708 106.485 -61.284 105.933 -61.668C105.405 -62.052 104.613 -62.244 103.557 -62.244C102.429 -62.244 101.589 -61.98 101.037 -61.452C100.485 -60.948 100.125 -60.264 99.9573 -59.4C99.8133 -58.536 99.7413 -57.384 99.7413 -55.944V-45.144C99.7413 -42.912 100.005 -41.304 100.533 -40.32C101.085 -39.36 102.129 -38.88 103.665 -38.88C105.177 -38.88 106.209 -39.408 106.761 -40.464C107.337 -41.52 107.625 -43.212 107.625 -45.54V-47.556H103.917V-50.436H111.297V-36H108.741L108.345 -39.348C107.433 -36.876 105.705 -35.64 103.161 -35.64ZM119.732 -46.296L113.432 -65.16H117.212L121.676 -51.084L126.068 -65.16H129.884L123.62 -46.296V-36H119.732V-46.296ZM-136.732 -29.16H-125.464V-26.244H-132.664V-16.524H-127.084V-13.644H-132.664V0H-136.732V-29.16ZM-115.217 0.324C-118.073 0.324 -120.125 -0.48 -121.373 -2.088C-122.597 -3.72 -123.209 -6.072 -123.209 -9.144V-20.196C-123.209 -23.22 -122.585 -25.512 -121.337 -27.072C-120.089 -28.632 -118.049 -29.412 -115.217 -29.412C-112.385 -29.412 -110.357 -28.62 -109.133 -27.036C-107.885 -25.476 -107.261 -23.196 -107.261 -20.196V-9.108C-107.261 -6.084 -107.885 -3.756 -109.133 -2.124C-110.381 -0.492 -112.409 0.324 -115.217 0.324ZM-115.217 -2.88C-113.705 -2.88 -112.685 -3.324 -112.157 -4.212C-111.629 -5.1 -111.365 -6.444 -111.365 -8.244V-21.024C-111.365 -22.8 -111.629 -24.108 -112.157 -24.948C-112.685 -25.812 -113.705 -26.244 -115.217 -26.244C-116.753 -26.244 -117.785 -25.812 -118.313 -24.948C-118.841 -24.108 -119.105 -22.8 -119.105 -21.024V-8.244C-119.105 -6.444 -118.841 -5.1 -118.313 -4.212C-117.785 -3.324 -116.753 -2.88 -115.217 -2.88ZM-103.263 -29.16H-97.3952C-94.4432 -29.16 -92.2832 -28.548 -90.9152 -27.324C-89.5232 -26.124 -88.8272 -24.156 -88.8272 -21.42C-88.8272 -17.676 -90.0272 -15.408 -92.4272 -14.616L-88.2872 0H-92.2112L-96.0273 -13.68H-99.1952V0H-103.263V-29.16ZM-97.6472 -16.596C-95.8952 -16.596 -94.6472 -16.944 -93.9032 -17.64C-93.1352 -18.336 -92.7512 -19.596 -92.7512 -21.42C-92.7512 -22.62 -92.8832 -23.556 -93.1472 -24.228C-93.4112 -24.924 -93.8792 -25.428 -94.5512 -25.74C-95.2232 -26.076 -96.1712 -26.244 -97.3952 -26.244H-99.1952V-16.596H-97.6472ZM-71.7607 -29.16H-67.8367L-61.6087 0H-65.4607L-66.7927 -7.344H-72.7327L-74.1367 0H-77.9527L-71.7607 -29.16ZM-67.3327 -10.26L-69.7807 -23.4L-72.1927 -10.26H-67.3327ZM-58.65 -29.16H-55.878L-47.598 -9.792V-29.16H-44.214V0H-46.806L-55.194 -19.908V0H-58.65V-29.16ZM-35.1664 -10.296L-41.4664 -29.16H-37.6864L-33.2224 -15.084L-28.8304 -29.16H-25.0144L-31.2784 -10.296V0H-35.1664V-10.296ZM-10.8678 -26.136H-15.7998V-29.16H-2.01184V-26.136H-6.79984V0H-10.8678V-26.136ZM5.33694 -29.16H9.26094L15.4889 0H11.6369L10.3049 -7.344H4.36494L2.96094 0H-0.855062L5.33694 -29.16ZM9.76494 -10.26L7.31694 -23.4L4.90494 -10.26H9.76494ZM25.3237 0.324C22.8757 0.324 21.0037 -0.432 19.7077 -1.944C18.4357 -3.456 17.7277 -5.532 17.5837 -8.172L21.1837 -9.144C21.3037 -7.272 21.6637 -5.76 22.2637 -4.608C22.8877 -3.456 23.9077 -2.88 25.3237 -2.88C26.3797 -2.88 27.1717 -3.168 27.6997 -3.744C28.2517 -4.344 28.5277 -5.196 28.5277 -6.3C28.5277 -7.5 28.2757 -8.496 27.7717 -9.288C27.2677 -10.08 26.4637 -10.956 25.3597 -11.916L20.4637 -16.236C19.4797 -17.1 18.7597 -18.024 18.3037 -19.008C17.8717 -20.016 17.6557 -21.24 17.6557 -22.68C17.6557 -24.816 18.2677 -26.472 19.4917 -27.648C20.7157 -28.824 22.3837 -29.412 24.4957 -29.412C26.7997 -29.412 28.5397 -28.8 29.7157 -27.576C30.8917 -26.352 31.5997 -24.456 31.8397 -21.888L28.3837 -20.952C28.2637 -22.656 27.9277 -23.964 27.3757 -24.876C26.8477 -25.812 25.8877 -26.28 24.4957 -26.28C23.4637 -26.28 22.6717 -26.004 22.1197 -25.452C21.5677 -24.924 21.2917 -24.132 21.2917 -23.076C21.2917 -22.212 21.4357 -21.48 21.7237 -20.88C22.0117 -20.304 22.5037 -19.716 23.1997 -19.116L28.1317 -14.796C29.4037 -13.668 30.4117 -12.444 31.1557 -11.124C31.9237 -9.804 32.3077 -8.304 32.3077 -6.624C32.3077 -4.488 31.6597 -2.796 30.3637 -1.548C29.0677 -0.3 27.3877 0.324 25.3237 0.324ZM35.4633 -29.16H39.5313V-15.408L46.2273 -29.16H50.0073L44.2473 -16.308L50.9433 0H46.9833L41.4033 -13.68L39.5313 -10.296V0H35.4633V-29.16Z" fill="#173D33"/>
<g id="Group 26">
<g id="Rectangle 29" filter="url(#filter0_b_0_1)">
<rect x="-139" y="-256" width="320" height="568" rx="25" fill="#173D33" fill-opacity="0.75"/>
</g>
<g id="Frame 41">
<g id="Frame 44">
<g id="arrow-right">
<g id="Group 23">
<path id="Vector" d="M6.28418 4.49219L12.007 4.49219L12.007 10.215" stroke="white" stroke-miterlimit="10" stroke-linecap="round" stroke-linejoin="round"/>
<path id="Vector_2" d="M3.99365 12.5059L11.9274 4.57212" stroke="white" stroke-miterlimit="10" stroke-linecap="round" stroke-linejoin="round"/>
</g>
</g>
</g>
</g>
</g>
</g>
<defs>
<filter id="filter0_b_0_1" x="-164" y="-281" width="370" height="618" filterUnits="userSpaceOnUse" color-interpolation-filters="sRGB">
<feFlood flood-opacity="0" result="BackgroundImageFix"/>
<feGaussianBlur in="BackgroundImageFix" stdDeviation="12.5"/>
<feComposite in2="SourceAlpha" operator="in" result="effect1_backgroundBlur_0_1"/>
<feBlend mode="normal" in="SourceGraphic" in2="effect1_backgroundBlur_0_1" result="shape"/>
</filter>
<clipPath id="clip0_0_1">
<rect width="360" height="6337" fill="white" transform="translate(-159 -292)"/>
</clipPath>
</defs>
</svg>
