<svg width="16" height="16" viewBox="0 0 16 16" fill="none" xmlns="http://www.w3.org/2000/svg">
<path d="M6.39996 13.3333H9.59996C12.2666 13.3333 13.3333 12.2666 13.3333 9.59996V6.39996C13.3333 3.73329 12.2666 2.66663 9.59996 2.66663H6.39996C3.73329 2.66663 2.66663 3.73329 2.66663 6.39996V9.59996C2.66663 12.2666 3.73329 13.3333 6.39996 13.3333Z" stroke="#173D33" stroke-linecap="round" stroke-linejoin="round"/>
<path d="M6.99996 11.3333H8.99996C10.6666 11.3333 11.3333 10.6666 11.3333 8.99996V6.99996C11.3333 5.33329 10.6666 4.66663 8.99996 4.66663H6.99996C5.33329 4.66663 4.66663 5.33329 4.66663 6.99996V8.99996C4.66663 10.6666 5.33329 11.3333 6.99996 11.3333Z" stroke="#173D33" stroke-linecap="round" stroke-linejoin="round"/>
<path d="M5.33997 2.66671V1.33337" stroke="#173D33" stroke-linecap="round" stroke-linejoin="round"/>
<path d="M8 2.66671V1.33337" stroke="#173D33" stroke-linecap="round" stroke-linejoin="round"/>
<path d="M10.6666 2.66671V1.33337" stroke="#173D33" stroke-linecap="round" stroke-linejoin="round"/>
<path d="M13.3334 5.33337H14.6667" stroke="#173D33" stroke-linecap="round" stroke-linejoin="round"/>
<path d="M13.3334 8H14.6667" stroke="#173D33" stroke-linecap="round" stroke-linejoin="round"/>
<path d="M13.3334 10.6666H14.6667" stroke="#173D33" stroke-linecap="round" stroke-linejoin="round"/>
<path d="M10.6666 13.3334V14.6667" stroke="#173D33" stroke-linecap="round" stroke-linejoin="round"/>
<path d="M8.00671 13.3334V14.6667" stroke="#173D33" stroke-linecap="round" stroke-linejoin="round"/>
<path d="M5.33997 13.3334V14.6667" stroke="#173D33" stroke-linecap="round" stroke-linejoin="round"/>
<path d="M1.33337 5.33337H2.66671" stroke="#173D33" stroke-linecap="round" stroke-linejoin="round"/>
<path d="M1.33337 8H2.66671" stroke="#173D33" stroke-linecap="round" stroke-linejoin="round"/>
<path d="M1.33337 10.6666H2.66671" stroke="#173D33" stroke-linecap="round" stroke-linejoin="round"/>
<path d="M8.00002 6.46667L7.37335 7.56001C7.23335 7.80001 7.34669 8.00001 7.62669 8.00001H8.37335C8.65335 8.00001 8.76669 8.20001 8.62669 8.44001L8.00002 9.53334" stroke="#173D33" stroke-linecap="round" stroke-linejoin="round"/>
</svg>
