<svg width="16" height="16" viewBox="0 0 16 16" fill="none" xmlns="http://www.w3.org/2000/svg">
<path d="M14.6667 8.00004C14.6667 4.32004 11.68 1.33337 8.00004 1.33337C4.32004 1.33337 1.33337 4.32004 1.33337 8.00004C1.33337 11.68 4.32004 14.6667 8.00004 14.6667" stroke="#173D33" stroke-linecap="round" stroke-linejoin="round"/>
<path d="M5.33336 2H6.00002C4.70002 5.89333 4.70002 10.1067 6.00002 14H5.33336" stroke="#173D33" stroke-linecap="round" stroke-linejoin="round"/>
<path d="M10 2C10.6467 3.94667 10.9733 5.97333 10.9733 8" stroke="#173D33" stroke-linecap="round" stroke-linejoin="round"/>
<path d="M2 10.6667V10C3.94667 10.6467 5.97333 10.9733 8 10.9733" stroke="#173D33" stroke-linecap="round" stroke-linejoin="round"/>
<path d="M2 5.99978C5.89333 4.69978 10.1067 4.69978 14 5.99978" stroke="#173D33" stroke-linecap="round" stroke-linejoin="round"/>
<path d="M12.8067 10.4933L10.4466 12.8534C10.3533 12.9467 10.2666 13.12 10.2466 13.2467L10.12 14.1467C10.0733 14.4733 10.3 14.7 10.6267 14.6533L11.5266 14.5267C11.6533 14.5067 11.8333 14.42 11.92 14.3267L14.28 11.9667C14.6867 11.56 14.88 11.0867 14.28 10.4867C13.6867 9.89334 13.2133 10.0867 12.8067 10.4933Z" stroke="#173D33" stroke-miterlimit="10" stroke-linecap="round" stroke-linejoin="round"/>
<path d="M12.4667 10.8334C12.6667 11.5534 13.2267 12.1134 13.9467 12.3134" stroke="#173D33" stroke-miterlimit="10" stroke-linecap="round" stroke-linejoin="round"/>
</svg>
